<svg xmlns="http://www.w3.org/2000/svg" xmlns:xlink="http://www.w3.org/1999/xlink" version="1.1" width="256" height="256" viewBox="0 0 256 256" xml:space="preserve">

<defs>
</defs>
<g style="stroke: none; stroke-width: 0; stroke-dasharray: none; stroke-linecap: butt; stroke-linejoin: miter; stroke-miterlimit: 10; fill: none; fill-rule: nonzero; opacity: 1;" transform="translate(1.4065934065934016 1.4065934065934016) scale(2.81 2.81)" >
	<path d="M 51.528 47.464 c -0.035 0 -0.07 -0.002 -0.106 -0.006 c -0.555 -0.057 -0.959 -0.555 -0.902 -1.11 l 4.722 -45.441 C 55.297 0.392 55.731 0 56.249 0 H 71.22 c 0.559 0 1.011 0.453 1.011 1.011 s -0.452 1.011 -1.011 1.011 h -14.06 l -4.628 44.534 C 52.479 47.077 52.039 47.464 51.528 47.464 z" style="stroke: none; stroke-width: 1; stroke-dasharray: none; stroke-linecap: butt; stroke-linejoin: miter; stroke-miterlimit: 10; fill: rgb(51,204,204); fill-rule: nonzero; opacity: 1;" transform=" matrix(1 0 0 1 0 0) " stroke-linecap="round" />
	<path d="M 20.345 45.381 c 7.747 -0.837 15.738 2.905 24.07 3.808 c 8.162 1.458 16.2 -2.41 24.099 -3.808 l 0.077 0.008 l 2.462 -24.982 c 0.09 -0.908 -0.624 -1.695 -1.536 -1.695 H 44.415 H 19.312 c -0.912 0 -1.626 0.787 -1.536 1.695 l 2.463 24.985 L 20.345 45.381 z" style="stroke: none; stroke-width: 1; stroke-dasharray: none; stroke-linecap: butt; stroke-linejoin: miter; stroke-miterlimit: 10; fill: rgb(56,228,228); fill-rule: nonzero; opacity: 1;" transform=" matrix(1 0 0 1 0 0) " stroke-linecap="round" />
	<path d="M 20.239 45.391 l 4.149 42.097 C 24.529 88.914 25.727 90 27.159 90 h 17.255 H 61.67 c 1.432 0 2.631 -1.086 2.771 -2.511 l 4.15 -42.1 l -0.077 -0.008 c -7.9 1.398 -15.922 1.458 -24.084 0 c -8.332 -0.903 -16.338 -0.837 -24.085 0 L 20.239 45.391 z" style="stroke: none; stroke-width: 1; stroke-dasharray: none; stroke-linecap: butt; stroke-linejoin: miter; stroke-miterlimit: 10; fill: rgb(255,222,85); fill-rule: nonzero; opacity: 1;" transform=" matrix(1 0 0 1 0 0) " stroke-linecap="round" />
	<path d="M 51.19 79.141 l -6.906 2.625 c -0.826 0.314 -1.749 -0.101 -2.063 -0.927 l -2.625 -6.906 c -0.314 -0.826 0.101 -1.749 0.927 -2.063 l 6.906 -2.625 c 0.826 -0.314 1.749 0.101 2.063 0.927 l 2.625 6.906 C 52.43 77.904 52.015 78.827 51.19 79.141 z" style="stroke: none; stroke-width: 1; stroke-dasharray: none; stroke-linecap: butt; stroke-linejoin: miter; stroke-miterlimit: 10; fill: rgb(255,255,255); fill-rule: nonzero; opacity: 1;" transform=" matrix(1 0 0 1 0 0) " stroke-linecap="round" />
	<path d="M 57.75 67.067 l -6.966 -2.462 c -0.833 -0.294 -1.269 -1.208 -0.975 -2.041 l 2.462 -6.966 c 0.294 -0.833 1.208 -1.269 2.041 -0.975 l 6.966 2.462 c 0.833 0.294 1.269 1.208 0.975 2.041 l -2.462 6.966 C 59.496 66.925 58.583 67.362 57.75 67.067 z" style="stroke: none; stroke-width: 1; stroke-dasharray: none; stroke-linecap: butt; stroke-linejoin: miter; stroke-miterlimit: 10; fill: rgb(255,255,255); fill-rule: nonzero; opacity: 1;" transform=" matrix(1 0 0 1 0 0) " stroke-linecap="round" />
	<path d="M 45.253 62.008 c -2.724 4.604 -8.664 6.128 -13.268 3.404 c -4.604 -2.724 -6.128 -8.664 -3.404 -13.268 L 45.253 62.008 z" style="stroke: none; stroke-width: 1; stroke-dasharray: none; stroke-linecap: butt; stroke-linejoin: miter; stroke-miterlimit: 10; fill: rgb(255,255,255); fill-rule: nonzero; opacity: 1;" transform=" matrix(1 0 0 1 0 0) " stroke-linecap="round" />
</g>
</svg>