<?xml version="1.0" encoding="utf-8"?>
<!-- Generator: Adobe Illustrator 24.1.1, SVG Export Plug-In . SVG Version: 6.00 Build 0)  -->
<svg version="1.1" id="Layer_1" xmlns="http://www.w3.org/2000/svg" xmlns:xlink="http://www.w3.org/1999/xlink" x="0px" y="0px"
	 viewBox="0 0 512 512" style="enable-background:new 0 0 512 512;" xml:space="preserve">
<g>
	<path d="M293.2,264.2H512V45.5c-0.3-48.4-28.6-60.1-62.8-25.8l-49.2,49.4c-43.3-33.9-96.3-52.5-152.1-52.5
		c-66.1,0-128.4,25.8-175.1,72.5C25.8,135.8,0,198.1,0,264.2c0,66.3,25.8,128.5,72.6,175.2c46.8,46.8,109,72.6,175.2,72.6
		c66.1,0,128.4-25.8,175.2-72.6c12.6-12.7,23.8-26.5,33.3-41.2c14.8-23.1,8.1-53.7-14.9-68.5c-23-14.7-53.7-8.1-68.4,14.9
		c-5.7,8.8-12.5,17.1-20,24.7c-28.1,28.1-65.4,43.5-105.1,43.5c-39.7,0-77-15.4-105.1-43.5c-28-28.1-43.5-65.4-43.5-105.2
		c0-39.7,15.4-77,43.5-105c28.1-28.1,65.4-43.6,105.1-43.6c29.3,0,57.4,8.6,81.4,24.4L267.4,202
		C233.2,236.2,244.8,264.2,293.2,264.2z"/>
</g>
</svg>
