<svg xmlns="http://www.w3.org/2000/svg" xmlns:xlink="http://www.w3.org/1999/xlink" version="1.1" width="256" height="256" viewBox="0 0 256 256" xml:space="preserve">

<defs>
</defs>
<g style="stroke: none; stroke-width: 0; stroke-dasharray: none; stroke-linecap: butt; stroke-linejoin: miter; stroke-miterlimit: 10; fill: none; fill-rule: nonzero; opacity: 1;" transform="translate(1.4065934065934016 1.4065934065934016) scale(2.81 2.81)" >
	<path d="M 65.101 67.98 c -0.028 -0.046 -0.015 -0.107 0.028 -0.138 c 3.436 -2.465 6.806 -5.025 9.994 -7.786 c 3.192 -2.741 6.265 -5.661 8.763 -8.99 c 1.239 -1.663 2.327 -3.44 3.035 -5.325 c 0.748 -1.866 1.131 -3.818 0.982 -5.74 c -0.102 -1.934 -0.899 -3.797 -1.98 -5.511 c -0.876 -1.342 -1.957 -2.58 -3.125 -3.765 c -0.169 1.806 -0.649 3.532 -1.278 5.153 c -1.548 3.887 -3.875 7.28 -6.371 10.46 c -2.541 3.154 -5.321 6.072 -8.188 8.881 c -0.04 0.039 -0.104 0.038 -0.142 -0.003 c -0.037 -0.039 -0.037 -0.101 -0.002 -0.14 c 2.671 -2.995 5.24 -6.086 7.533 -9.36 c 2.302 -3.25 4.4 -6.7 5.661 -10.405 c 1.279 -3.687 1.297 -7.721 -0.743 -10.748 c -0.977 -1.539 -2.411 -2.816 -3.984 -3.928 c -1.287 -0.884 -2.68 -1.658 -4.119 -2.385 c 0.13 0.924 0.176 1.852 0.151 2.76 c -0.136 4.483 -1.563 8.648 -3.189 12.613 c -1.712 3.946 -3.756 7.706 -5.943 11.363 c -0.029 0.048 -0.091 0.064 -0.138 0.034 c -0.045 -0.028 -0.061 -0.088 -0.037 -0.136 c 1.95 -3.785 3.746 -7.656 5.184 -11.642 c 1.42 -3.965 2.592 -8.119 2.514 -12.229 c -0.002 -1.025 -0.167 -2.023 -0.377 -2.992 c -0.272 -0.947 -0.583 -1.883 -1.105 -2.684 c -0.487 -0.817 -1.074 -1.568 -1.803 -2.177 c -0.702 -0.633 -1.496 -1.184 -2.369 -1.623 c -1.724 -0.922 -3.689 -1.485 -5.702 -1.873 c -1.757 -0.33 -3.564 -0.544 -5.39 -0.722 c 1.35 2.549 1.843 5.37 2.077 8.117 c 0.2 2.977 0.158 5.948 -0.096 8.892 c -0.082 1.476 -0.294 2.939 -0.434 4.407 l -0.603 4.38 c -0.008 0.056 -0.059 0.095 -0.114 0.087 c -0.054 -0.008 -0.091 -0.06 -0.086 -0.114 c 0.602 -5.841 0.992 -11.763 0.333 -17.547 c -0.333 -2.865 -0.99 -5.762 -2.485 -8.079 c -0.77 -1.115 -1.716 -2.116 -2.927 -2.643 c -1.193 -0.551 -2.524 -0.755 -3.883 -0.749 c -1.36 0.052 -2.67 0.317 -3.807 0.905 c -1.156 0.565 -2.02 1.573 -2.717 2.677 l -0.497 0.862 l -0.385 0.944 c -0.294 0.608 -0.417 1.311 -0.633 1.965 c -0.363 1.346 -0.605 2.748 -0.757 4.171 c -0.657 5.707 -0.358 11.598 -0.167 17.494 c 0.003 0.057 -0.041 0.105 -0.096 0.107 c -0.049 0.002 -0.092 -0.033 -0.103 -0.08 c -0.319 -1.443 -0.588 -2.897 -0.859 -4.354 c -0.192 -1.467 -0.447 -2.929 -0.577 -4.411 c -0.346 -2.953 -0.396 -5.951 -0.197 -8.967 c 0.239 -2.697 0.75 -5.493 2.127 -8.016 c -1.672 0.171 -3.328 0.372 -4.941 0.675 c -2.013 0.389 -3.977 0.951 -5.702 1.873 c -0.873 0.438 -1.667 0.989 -2.369 1.623 c -0.729 0.609 -1.316 1.361 -1.803 2.177 c -0.522 0.801 -0.834 1.738 -1.105 2.684 c -0.21 0.969 -0.374 1.967 -0.377 2.992 c -0.078 4.11 1.094 8.264 2.514 12.229 c 1.439 3.986 3.234 7.857 5.184 11.642 c 0.026 0.05 0.007 0.112 -0.042 0.139 c -0.047 0.025 -0.105 0.008 -0.133 -0.037 c -2.186 -3.657 -4.23 -7.417 -5.943 -11.363 c -1.626 -3.965 -3.053 -8.13 -3.189 -12.613 c -0.025 -0.908 0.02 -1.836 0.151 -2.76 c -1.438 0.727 -2.832 1.502 -4.119 2.385 c -1.573 1.112 -3.007 2.389 -3.984 3.928 c -2.039 3.027 -2.022 7.061 -0.743 10.748 c 1.261 3.705 3.358 7.155 5.661 10.405 c 2.293 3.275 4.862 6.365 7.533 9.36 c 0.038 0.042 0.035 0.106 -0.006 0.145 c -0.039 0.037 -0.1 0.035 -0.138 -0.002 c -2.867 -2.809 -5.647 -5.727 -8.188 -8.881 c -2.496 -3.179 -4.823 -6.573 -6.371 -10.46 c -0.646 -1.666 -1.135 -3.442 -1.289 -5.302 c -1.333 1.132 -2.569 2.376 -3.543 3.811 c -1.198 1.77 -2.043 3.807 -2.08 5.915 c -0.125 2.101 0.497 4.178 1.414 6.073 c 0.922 1.907 2.206 3.636 3.591 5.258 c 2.795 3.255 6.205 5.911 9.479 8.712 c 3.299 2.79 6.727 5.448 10.057 8.314 c 0.043 0.037 0.049 0.102 0.013 0.145 c -0.015 0.019 -0.04 0.009 -0.062 0.014 c 3.411 2.453 5.445 6.328 5.445 10.527 c 0 3.64 2.961 6.602 6.601 6.602 h 15.613 c 3.64 0 6.602 -2.962 6.602 -6.602 v -0.851 c 0 -4.158 2.005 -8.011 5.367 -10.471 C 65.148 68.021 65.119 68.009 65.101 67.98 z" style="stroke: none; stroke-width: 1; stroke-dasharray: none; stroke-linecap: butt; stroke-linejoin: miter; stroke-miterlimit: 10; fill: rgb(255,222,85); fill-rule: nonzero; opacity: 1;" transform=" matrix(1 0 0 1 0 0) " stroke-linecap="round" />
	<path d="M 89.903 39.781 c -0.284 -2.353 -1.424 -4.483 -2.858 -6.167 c -1.211 -1.427 -2.667 -2.544 -4.203 -3.478 c 0.008 -0.163 0.034 -0.323 0.036 -0.487 c -0.002 -1.099 -0.156 -2.212 -0.462 -3.291 c -0.355 -1.062 -0.847 -2.081 -1.502 -2.971 c -1.317 -1.781 -3.079 -3.071 -4.922 -3.999 c -1.572 -0.794 -3.231 -1.31 -4.908 -1.664 c -0.208 -1.159 -0.565 -2.303 -1.125 -3.385 c -1.088 -2.094 -2.962 -3.754 -5.032 -4.647 c -2.069 -0.93 -4.253 -1.351 -6.404 -1.458 c -1.944 -0.114 -3.872 0.029 -5.766 0.325 c -0.038 -0.066 -0.069 -0.135 -0.108 -0.201 c -0.826 -1.301 -1.929 -2.547 -3.378 -3.248 c -1.422 -0.724 -2.998 -1.011 -4.527 -1.055 c -1.528 -0.013 -3.125 0.213 -4.602 0.899 c -1.504 0.662 -2.689 1.901 -3.589 3.213 c -0.071 0.11 -0.128 0.224 -0.195 0.336 c -1.774 -0.256 -3.576 -0.375 -5.393 -0.269 c -2.151 0.108 -4.335 0.528 -6.404 1.458 c -2.07 0.893 -3.944 2.553 -5.032 4.647 c -0.561 1.081 -0.917 2.226 -1.125 3.385 c -1.677 0.355 -3.336 0.87 -4.908 1.664 c -1.843 0.928 -3.604 2.218 -4.922 3.999 c -0.655 0.89 -1.147 1.909 -1.502 2.971 c -0.305 1.079 -0.46 2.191 -0.462 3.291 c 0.003 0.202 0.032 0.398 0.044 0.598 c -1.468 1.083 -2.859 2.299 -4.001 3.774 c -1.355 1.755 -2.413 3.887 -2.6 6.209 c -0.242 2.316 0.341 4.631 1.235 6.712 c 0.9 2.098 2.17 3.978 3.539 5.742 c 2.773 3.506 5.947 6.652 9.478 9.278 c 3.529 2.626 7.25 4.949 11.183 6.871 c 0.041 0.02 0.091 0.01 0.121 -0.027 c 0.036 -0.044 0.03 -0.109 -0.013 -0.145 c -3.329 -2.866 -6.758 -5.523 -10.057 -8.314 c -3.273 -2.801 -6.683 -5.457 -9.479 -8.712 c -1.385 -1.623 -2.67 -3.352 -3.591 -5.258 c -0.917 -1.895 -1.539 -3.972 -1.414 -6.073 c 0.037 -2.108 0.882 -4.145 2.08 -5.915 c 0.973 -1.435 2.21 -2.679 3.543 -3.811 c 0.155 1.86 0.643 3.636 1.289 5.302 c 1.548 3.887 3.875 7.28 6.371 10.46 c 2.541 3.154 5.321 6.072 8.188 8.881 c 0.038 0.037 0.099 0.038 0.138 0.002 c 0.041 -0.038 0.044 -0.103 0.006 -0.145 c -2.671 -2.995 -5.24 -6.085 -7.533 -9.36 c -2.302 -3.25 -4.4 -6.7 -5.661 -10.405 c -1.279 -3.687 -1.297 -7.721 0.743 -10.748 c 0.977 -1.539 2.411 -2.816 3.984 -3.928 c 1.287 -0.884 2.68 -1.658 4.119 -2.385 c -0.13 0.924 -0.176 1.852 -0.151 2.76 c 0.136 4.483 1.563 8.648 3.189 12.613 c 1.712 3.946 3.756 7.706 5.943 11.363 c 0.028 0.045 0.086 0.063 0.133 0.037 c 0.049 -0.027 0.068 -0.089 0.042 -0.139 c -1.95 -3.785 -3.746 -7.656 -5.184 -11.642 c -1.42 -3.965 -2.592 -8.119 -2.514 -12.229 c 0.002 -1.025 0.167 -2.023 0.377 -2.992 c 0.272 -0.947 0.583 -1.883 1.105 -2.684 c 0.487 -0.817 1.074 -1.568 1.803 -2.177 c 0.702 -0.633 1.496 -1.184 2.369 -1.623 c 1.724 -0.922 3.689 -1.485 5.702 -1.873 c 1.613 -0.303 3.269 -0.504 4.941 -0.675 c -1.377 2.523 -1.888 5.319 -2.127 8.016 c -0.199 3.016 -0.149 6.014 0.197 8.967 c 0.129 1.481 0.385 2.944 0.577 4.411 c 0.271 1.457 0.54 2.911 0.859 4.354 c 0.011 0.047 0.054 0.082 0.103 0.08 c 0.056 -0.003 0.099 -0.051 0.096 -0.107 c -0.191 -5.896 -0.49 -11.787 0.167 -17.494 c 0.151 -1.423 0.394 -2.825 0.757 -4.171 c 0.216 -0.655 0.339 -1.357 0.633 -1.965 l 0.385 -0.944 l 0.497 -0.862 c 0.697 -1.104 1.56 -2.112 2.717 -2.677 c 1.137 -0.589 2.447 -0.853 3.807 -0.905 c 1.359 -0.005 2.69 0.198 3.883 0.749 c 1.212 0.526 2.157 1.528 2.927 2.643 c 1.496 2.317 2.152 5.214 2.485 8.079 c 0.659 5.784 0.269 11.706 -0.333 17.547 c -0.006 0.055 0.032 0.107 0.086 0.114 c 0.055 0.008 0.106 -0.031 0.114 -0.087 l 0.603 -4.38 c 0.141 -1.468 0.353 -2.931 0.434 -4.407 c 0.254 -2.945 0.296 -5.916 0.096 -8.892 c -0.234 -2.746 -0.727 -5.568 -2.077 -8.117 c 1.826 0.178 3.633 0.392 5.39 0.722 c 2.013 0.389 3.977 0.951 5.702 1.873 c 0.873 0.438 1.667 0.989 2.369 1.623 c 0.729 0.609 1.316 1.361 1.803 2.177 c 0.522 0.801 0.833 1.738 1.105 2.684 c 0.21 0.969 0.374 1.967 0.377 2.992 c 0.078 4.11 -1.094 8.264 -2.514 12.229 c -1.439 3.987 -3.234 7.857 -5.184 11.642 c -0.024 0.047 -0.009 0.107 0.037 0.136 c 0.047 0.029 0.109 0.014 0.138 -0.034 c 2.186 -3.657 4.23 -7.417 5.943 -11.363 c 1.626 -3.965 3.053 -8.13 3.189 -12.613 c 0.025 -0.908 -0.02 -1.836 -0.151 -2.76 c 1.438 0.727 2.832 1.502 4.119 2.385 c 1.573 1.112 3.007 2.389 3.984 3.928 c 2.039 3.027 2.022 7.061 0.743 10.748 c -1.261 3.705 -3.358 7.155 -5.661 10.405 c -2.293 3.275 -4.862 6.365 -7.533 9.36 c -0.035 0.04 -0.035 0.101 0.002 0.14 c 0.038 0.041 0.102 0.042 0.142 0.003 c 2.867 -2.809 5.647 -5.727 8.188 -8.881 c 2.496 -3.179 4.823 -6.573 6.371 -10.46 c 0.629 -1.621 1.109 -3.347 1.278 -5.153 c 1.168 1.185 2.25 2.423 3.125 3.765 c 1.081 1.714 1.879 3.576 1.98 5.511 c 0.149 1.922 -0.235 3.874 -0.982 5.74 c -0.708 1.885 -1.796 3.662 -3.035 5.325 c -2.498 3.329 -5.571 6.25 -8.763 8.99 c -3.188 2.761 -6.558 5.321 -9.994 7.786 c -0.043 0.031 -0.056 0.091 -0.028 0.138 c 0.029 0.048 0.091 0.063 0.138 0.034 c 3.587 -2.239 7.121 -4.582 10.51 -7.157 c 3.354 -2.613 6.613 -5.414 9.392 -8.767 c 1.386 -1.673 2.661 -3.488 3.607 -5.546 c 0.475 -1.024 0.818 -2.129 1.059 -3.263 C 89.986 42.135 90.085 40.949 89.903 39.781 z" style="stroke: none; stroke-width: 1; stroke-dasharray: none; stroke-linecap: butt; stroke-linejoin: miter; stroke-miterlimit: 10; fill: rgb(255,169,65); fill-rule: nonzero; opacity: 1;" transform=" matrix(1 0 0 1 0 0) " stroke-linecap="round" />
</g>
</svg>